<mxfile host="app.diagrams.net" modified="2020-09-27T02:49:19.634Z" agent="5.0 (Windows NT 10.0; Win64; x64) AppleWebKit/537.36 (KHTML, like Gecko) Chrome/85.0.4183.121 Safari/537.36" etag="sfxARIcIFvWTzkTZM-fC" version="13.7.5" type="github">
  <diagram name="Page-1" id="e7e014a7-5840-1c2e-5031-d8a46d1fe8dd">
    <mxGraphModel dx="923" dy="430" grid="1" gridSize="10" guides="1" tooltips="1" connect="1" arrows="1" fold="1" page="1" pageScale="1" pageWidth="1169" pageHeight="826" background="#ffffff" math="0" shadow="0">
      <root>
        <mxCell id="0" />
        <mxCell id="1" parent="0" />
        <mxCell id="2" value="OFC" style="swimlane;whiteSpace=wrap" parent="1" vertex="1">
          <mxGeometry x="360" y="128" width="365" height="570" as="geometry" />
        </mxCell>
        <mxCell id="zWzzXLhB3YzLZSfjlvJ7-43" value="从MQ拉取实发反馈数据" style="shape=process;whiteSpace=wrap;html=1;backgroundOutline=1;" vertex="1" parent="2">
          <mxGeometry x="75" y="62" width="120" height="60" as="geometry" />
        </mxCell>
        <mxCell id="zWzzXLhB3YzLZSfjlvJ7-51" value="是否整单缺货" style="rhombus;whiteSpace=wrap;html=1;" vertex="1" parent="2">
          <mxGeometry x="85" y="192" width="100" height="40" as="geometry" />
        </mxCell>
        <mxCell id="zWzzXLhB3YzLZSfjlvJ7-52" value="" style="edgeStyle=orthogonalEdgeStyle;rounded=0;orthogonalLoop=1;jettySize=auto;html=1;" edge="1" parent="2" source="zWzzXLhB3YzLZSfjlvJ7-43" target="zWzzXLhB3YzLZSfjlvJ7-51">
          <mxGeometry relative="1" as="geometry" />
        </mxCell>
        <mxCell id="zWzzXLhB3YzLZSfjlvJ7-69" value="逻辑判断" style="edgeLabel;html=1;align=center;verticalAlign=middle;resizable=0;points=[];fontSize=14;" vertex="1" connectable="0" parent="zWzzXLhB3YzLZSfjlvJ7-52">
          <mxGeometry x="-0.2059" relative="1" as="geometry">
            <mxPoint as="offset" />
          </mxGeometry>
        </mxCell>
        <mxCell id="zWzzXLhB3YzLZSfjlvJ7-53" value="整单缺货处理" style="whiteSpace=wrap;html=1;" vertex="1" parent="2">
          <mxGeometry x="260" y="191" width="85" height="42" as="geometry" />
        </mxCell>
        <mxCell id="zWzzXLhB3YzLZSfjlvJ7-54" value="" style="edgeStyle=orthogonalEdgeStyle;rounded=0;orthogonalLoop=1;jettySize=auto;html=1;" edge="1" parent="2" source="zWzzXLhB3YzLZSfjlvJ7-51" target="zWzzXLhB3YzLZSfjlvJ7-53">
          <mxGeometry relative="1" as="geometry" />
        </mxCell>
        <mxCell id="zWzzXLhB3YzLZSfjlvJ7-67" value="是" style="edgeLabel;html=1;align=center;verticalAlign=middle;resizable=0;points=[];fontSize=14;" vertex="1" connectable="0" parent="zWzzXLhB3YzLZSfjlvJ7-54">
          <mxGeometry x="-0.3205" y="2" relative="1" as="geometry">
            <mxPoint as="offset" />
          </mxGeometry>
        </mxCell>
        <mxCell id="4" value="LCP" style="swimlane;whiteSpace=wrap" parent="1" vertex="1">
          <mxGeometry x="724.5" y="128" width="395.5" height="570" as="geometry" />
        </mxCell>
        <mxCell id="zWzzXLhB3YzLZSfjlvJ7-58" value="实发处理逻辑" style="shape=process;whiteSpace=wrap;html=1;backgroundOutline=1;" vertex="1" parent="4">
          <mxGeometry x="165.5" y="62" width="135.5" height="60" as="geometry" />
        </mxCell>
        <mxCell id="zWzzXLhB3YzLZSfjlvJ7-60" value="DB" style="shape=cylinder;whiteSpace=wrap;html=1;boundedLbl=1;backgroundOutline=1;" vertex="1" parent="4">
          <mxGeometry x="86.5" y="288" width="154.5" height="48" as="geometry" />
        </mxCell>
        <mxCell id="zWzzXLhB3YzLZSfjlvJ7-41" value="MQ" style="shape=cylinder3;whiteSpace=wrap;html=1;boundedLbl=1;backgroundOutline=1;size=15;rotation=90;" vertex="1" parent="4">
          <mxGeometry x="-24.5" y="29.5" width="60" height="125" as="geometry" />
        </mxCell>
        <mxCell id="zWzzXLhB3YzLZSfjlvJ7-59" value="" style="edgeStyle=orthogonalEdgeStyle;rounded=0;orthogonalLoop=1;jettySize=auto;html=1;fontSize=14;" edge="1" parent="4" source="zWzzXLhB3YzLZSfjlvJ7-58" target="zWzzXLhB3YzLZSfjlvJ7-41">
          <mxGeometry relative="1" as="geometry" />
        </mxCell>
        <mxCell id="zWzzXLhB3YzLZSfjlvJ7-64" value="推送" style="edgeLabel;html=1;align=center;verticalAlign=middle;resizable=0;points=[];fontSize=14;" vertex="1" connectable="0" parent="zWzzXLhB3YzLZSfjlvJ7-59">
          <mxGeometry x="-0.2347" relative="1" as="geometry">
            <mxPoint as="offset" />
          </mxGeometry>
        </mxCell>
        <mxCell id="zWzzXLhB3YzLZSfjlvJ7-44" value="" style="endArrow=classic;html=1;exitX=1;exitY=0.5;exitDx=0;exitDy=0;entryX=0.5;entryY=1;entryDx=0;entryDy=0;entryPerimeter=0;" edge="1" parent="1" source="zWzzXLhB3YzLZSfjlvJ7-43" target="zWzzXLhB3YzLZSfjlvJ7-41">
          <mxGeometry width="50" height="50" relative="1" as="geometry">
            <mxPoint x="650" y="245" as="sourcePoint" />
            <mxPoint x="700" y="195" as="targetPoint" />
          </mxGeometry>
        </mxCell>
        <mxCell id="zWzzXLhB3YzLZSfjlvJ7-63" value="拉取" style="edgeLabel;html=1;align=center;verticalAlign=middle;resizable=0;points=[];fontSize=14;" vertex="1" connectable="0" parent="zWzzXLhB3YzLZSfjlvJ7-44">
          <mxGeometry x="-0.3845" y="-1" relative="1" as="geometry">
            <mxPoint as="offset" />
          </mxGeometry>
        </mxCell>
        <mxCell id="zWzzXLhB3YzLZSfjlvJ7-61" value="" style="edgeStyle=orthogonalEdgeStyle;rounded=0;orthogonalLoop=1;jettySize=auto;html=1;fontSize=14;" edge="1" parent="1" source="zWzzXLhB3YzLZSfjlvJ7-55" target="zWzzXLhB3YzLZSfjlvJ7-60">
          <mxGeometry relative="1" as="geometry" />
        </mxCell>
        <mxCell id="zWzzXLhB3YzLZSfjlvJ7-62" value="拉取" style="edgeLabel;html=1;align=center;verticalAlign=middle;resizable=0;points=[];fontSize=14;" vertex="1" connectable="0" parent="zWzzXLhB3YzLZSfjlvJ7-61">
          <mxGeometry x="-0.1066" y="-2" relative="1" as="geometry">
            <mxPoint as="offset" />
          </mxGeometry>
        </mxCell>
        <mxCell id="zWzzXLhB3YzLZSfjlvJ7-55" value="是否关单请求" style="rhombus;whiteSpace=wrap;html=1;" vertex="1" parent="1">
          <mxGeometry x="440" y="420" width="110" height="40" as="geometry" />
        </mxCell>
        <mxCell id="zWzzXLhB3YzLZSfjlvJ7-56" value="" style="edgeStyle=orthogonalEdgeStyle;rounded=0;orthogonalLoop=1;jettySize=auto;html=1;" edge="1" parent="1" source="zWzzXLhB3YzLZSfjlvJ7-51" target="zWzzXLhB3YzLZSfjlvJ7-55">
          <mxGeometry relative="1" as="geometry" />
        </mxCell>
        <mxCell id="zWzzXLhB3YzLZSfjlvJ7-68" value="否" style="edgeLabel;html=1;align=center;verticalAlign=middle;resizable=0;points=[];fontSize=14;" vertex="1" connectable="0" parent="zWzzXLhB3YzLZSfjlvJ7-56">
          <mxGeometry x="-0.246" relative="1" as="geometry">
            <mxPoint as="offset" />
          </mxGeometry>
        </mxCell>
        <mxCell id="zWzzXLhB3YzLZSfjlvJ7-57" value="实发反馈处理逻辑" style="text;html=1;align=center;verticalAlign=middle;resizable=0;points=[];autosize=2;fontSize=14;" vertex="1" parent="1">
          <mxGeometry x="475" y="60" width="110" height="20" as="geometry" />
        </mxCell>
      </root>
    </mxGraphModel>
  </diagram>
</mxfile>
